<svg width="151" height="57" viewBox="0 0 151 57" fill="none" xmlns="http://www.w3.org/2000/svg">
<path d="M83.7346 16.9984L76.0575 29.5565L67.8798 9.96777H72.0726L76.9557 21.6673L83.7346 10.3853L90.5154 21.6673L95.4003 9.96777H99.5913L91.4136 29.5565L83.7346 16.9984Z" fill="black"/>
<path d="M104.044 29.4422V9.96777H119.718V12.8396H108.28V18.0458H118.972V20.8286H108.28V26.5704H119.966V29.4422H104.044Z" fill="black"/>
<path d="M124.71 29.4422V9.96777H133.932C135.783 9.96777 137.353 10.4343 138.604 11.3547C139.8 12.2369 140.382 13.3061 140.382 14.6222C140.382 15.4735 140.153 16.1942 139.679 16.8277C139.188 17.4849 138.253 18.4851 137.585 19.1332L137.548 19.1132C138.989 19.3292 140.31 20.1842 141.073 21.0083C141.826 21.8234 142.193 22.7873 142.193 23.9509C142.193 25.5211 141.568 26.79 140.285 27.832C138.969 28.8994 137.285 29.4404 135.28 29.4404H124.708L124.71 29.4422ZM128.838 26.7791H134.18C135.239 26.7791 136.135 26.4887 136.847 25.9151C137.608 25.3015 137.995 24.5209 137.995 23.5951C137.995 22.6693 137.603 21.8924 136.831 21.3079C136.123 20.7724 135.219 20.5001 134.144 20.5001H128.838V26.7791ZM128.838 18.2546H133.043C133.965 18.2546 134.738 17.9968 135.345 17.4867C135.994 16.9421 136.325 16.2396 136.325 15.3973C136.325 14.555 135.994 13.8833 135.34 13.3478C134.735 12.8523 133.972 12.5999 133.077 12.5999H128.836V18.2527L128.838 18.2546Z" fill="black"/>
<path d="M75.7485 40.1235V33.1909H78.6563C79.9557 33.1909 80.9587 33.5104 81.669 34.1512C82.3774 34.792 82.7316 35.6325 82.7316 36.6726C82.7316 37.7128 82.381 38.5569 81.6798 39.185C80.9786 39.8113 79.9738 40.1253 78.669 40.1253H75.7503L75.7485 40.1235ZM77.4437 38.7312H78.5551C79.4569 38.7312 80.0949 38.5478 80.4653 38.1793C80.8358 37.8108 81.022 37.3098 81.022 36.6726C81.022 36.0355 80.8358 35.5127 80.4653 35.1405C80.0949 34.7684 79.4533 34.5832 78.5443 34.5832H77.4437V38.7312Z" fill="black"/>
<path d="M85.6376 40.1235V33.1909H90.8786V34.5832H87.3328V35.8866H90.6473V37.2499H87.3328V38.7312H90.9563V40.1235H85.6376Z" fill="black"/>
<path d="M93.4105 39.1286L94.2689 37.8561C94.9214 38.5187 95.6894 38.8509 96.5695 38.8509C97.0105 38.8509 97.3177 38.7873 97.4948 38.6621C97.672 38.5368 97.7587 38.3698 97.7587 38.1647C97.7587 37.945 97.6105 37.7817 97.3123 37.6728C97.0159 37.5638 96.546 37.4241 95.9027 37.2552C95.2593 37.0864 94.7244 36.8468 94.2942 36.5382C93.8641 36.2296 93.6509 35.7649 93.6509 35.1404C93.6509 34.516 93.8985 34.0513 94.3936 33.6628C94.8888 33.2743 95.6135 33.0801 96.5677 33.0801C97.596 33.0801 98.4545 33.4123 99.1448 34.0749L98.3298 35.2294C97.7948 34.712 97.2111 34.4543 96.5786 34.4543C96.1087 34.4543 95.7816 34.5196 95.5991 34.6485C95.4147 34.7774 95.3244 34.9353 95.3244 35.1205C95.3244 35.3201 95.4491 35.4853 95.6985 35.6179C95.9479 35.7504 96.4665 35.9156 97.2563 36.1098C98.046 36.3058 98.6009 36.5709 98.9244 36.9049C99.2479 37.2407 99.4087 37.6419 99.4087 38.1139C99.4087 38.7565 99.1683 39.272 98.6876 39.655C98.2069 40.0399 97.4966 40.2323 96.5569 40.2323C95.3822 40.2323 94.3322 39.8638 93.4069 39.1286H93.4105Z" fill="black"/>
<path d="M102.165 40.1235V33.1909H103.86V40.1235H102.165Z" fill="black"/>
<path d="M108.013 39.2137C107.212 38.5348 106.813 37.6834 106.813 36.6632C106.813 35.6431 107.212 34.7899 108.013 34.1073C108.814 33.4248 109.789 33.0835 110.942 33.0835C112.095 33.0835 113.108 33.4574 113.915 34.2072L112.77 35.113C112.3 34.6882 111.691 34.4758 110.942 34.4758C110.259 34.4758 109.683 34.6846 109.213 35.1021C108.743 35.5196 108.508 36.0406 108.508 36.6632C108.508 37.2859 108.741 37.8051 109.208 38.2208C109.674 38.6346 110.252 38.8416 110.942 38.8416C111.633 38.8416 112.175 38.6619 112.616 38.3043V37.3694H110.601V36.017H114.201V38.8216C113.841 39.2518 113.375 39.5967 112.802 39.8509C112.229 40.1068 111.609 40.2339 110.941 40.2339C109.788 40.2339 108.812 39.8945 108.011 39.2137H108.013Z" fill="black"/>
<path d="M117.195 40.1233V32.9111L122.35 37.1299V33.1907H124.023V40.4137L118.869 36.195V40.1233H117.195Z" fill="black"/>
<path d="M127.283 40.1235V33.1909H130.498C131.218 33.1909 131.832 33.4106 132.344 33.8517C132.853 34.2928 133.108 34.8356 133.108 35.4782C133.108 36.2932 132.667 36.9213 131.787 37.3588L133.614 40.1235H131.698L130.101 37.6275H128.966V40.1235H127.282H127.283ZM128.968 36.2352H130.388C130.719 36.2352 130.972 36.1625 131.147 36.0155C131.323 35.8703 131.411 35.6633 131.411 35.3983C131.411 35.1333 131.319 34.939 131.136 34.7956C130.952 34.6522 130.724 34.5814 130.453 34.5814H128.966V36.2333L128.968 36.2352Z" fill="black"/>
<path d="M136.269 40.1235V33.1909H139.484C140.203 33.1909 140.818 33.4106 141.329 33.8517C141.839 34.2928 142.094 34.8356 142.094 35.4782C142.094 36.2932 141.653 36.9213 140.773 37.3588L142.6 40.1235H140.684L139.086 37.6275H137.951V40.1235H136.267H136.269ZM137.953 36.2352H139.374C139.705 36.2352 139.958 36.1625 140.133 36.0155C140.308 35.8703 140.397 35.6633 140.397 35.3983C140.397 35.1333 140.304 34.939 140.122 34.7956C139.938 34.6522 139.71 34.5814 139.439 34.5814H137.951V36.2333L137.953 36.2352Z" fill="black"/>
<path d="M28.0702 19.7446L31.8165 26.4412L24.5027 39.3298L28.0702 45.5834L42.9057 19.7446H28.0702Z" fill="black"/>
<path d="M49.5491 19.6265L37.9376 39.8832L41.5159 46.2803L53.5087 25.4535C52.7298 23.415 51.49 21.1604 49.5491 19.6265Z" fill="black"/>
<path d="M58.4099 43.0929C58.4551 43.0457 58.5003 42.9985 58.5455 42.9513C58.6015 42.8914 58.6593 42.8333 58.7153 42.7734C58.7605 42.7262 58.8039 42.6772 58.8473 42.63C58.9033 42.5683 58.9593 42.5084 59.0135 42.4467C59.0551 42.3995 59.0967 42.3523 59.1382 42.3051C59.1943 42.2415 59.2503 42.178 59.3045 42.1145C59.3262 42.089 59.3461 42.0654 59.3678 42.04C59.4906 41.8966 59.6099 41.7514 59.7274 41.6044C59.769 41.5517 59.8123 41.5009 59.8539 41.4482C59.9027 41.3865 59.9497 41.3248 59.9967 41.2631C60.04 41.2068 60.0834 41.1524 60.125 41.0961C60.172 41.0344 60.2172 40.9726 60.2623 40.9109C60.3057 40.8528 60.3473 40.7966 60.3888 40.7385C60.434 40.6767 60.4774 40.615 60.5208 40.5515C60.5623 40.4916 60.6039 40.4335 60.6455 40.3736C60.6888 40.3119 60.7304 40.2483 60.772 40.1866C60.8135 40.1249 60.8533 40.065 60.8949 40.0033C60.9364 39.9397 60.978 39.878 61.0178 39.8145C61.0575 39.7528 61.0973 39.6892 61.137 39.6257C61.1768 39.5622 61.2166 39.5004 61.2545 39.4369C61.2943 39.3716 61.3322 39.308 61.372 39.2427C61.4099 39.181 61.4461 39.1174 61.484 39.0539C61.5238 38.9867 61.5617 38.9177 61.6015 38.8488C61.6358 38.787 61.672 38.7271 61.7063 38.6654C61.7479 38.591 61.7876 38.5166 61.8274 38.4421C61.8581 38.3859 61.8888 38.3296 61.9196 38.2715C61.9846 38.1481 62.0479 38.0246 62.1111 37.8994C62.1364 37.8485 62.1617 37.7959 62.187 37.7451C62.2304 37.6561 62.2738 37.5672 62.3172 37.4782C62.3443 37.4201 62.3714 37.362 62.3985 37.3021C62.4346 37.2241 62.4708 37.146 62.5051 37.068C62.5322 37.0062 62.5593 36.9445 62.5864 36.8828C62.619 36.8066 62.6533 36.7303 62.6858 36.6541C62.7129 36.5905 62.7382 36.527 62.7653 36.4635C62.7961 36.3872 62.8268 36.311 62.8575 36.2347C62.8828 36.1694 62.9081 36.1059 62.9334 36.0405C62.9623 35.9643 62.9912 35.8862 63.0202 35.81C63.0437 35.7446 63.069 35.6793 63.0925 35.6139C63.1214 35.5359 63.1485 35.4578 63.1756 35.3779C63.1973 35.3126 63.2208 35.249 63.2425 35.1837C63.2696 35.1038 63.2949 35.0221 63.322 34.9404C63.3419 34.8769 63.3635 34.8134 63.3834 34.7498C63.4105 34.6645 63.4358 34.5792 63.4611 34.4939C63.4792 34.434 63.4973 34.3723 63.5153 34.3124C63.5424 34.2161 63.5696 34.1199 63.5949 34.0237C63.6093 33.9729 63.6238 33.9221 63.6364 33.8694C63.6744 33.7224 63.7123 33.5753 63.7485 33.4265C63.7539 33.4047 63.7575 33.3847 63.7629 33.363C63.7937 33.2341 63.8226 33.1052 63.8497 32.9763C63.8605 32.9237 63.8714 32.8692 63.8822 32.8147C63.9021 32.7167 63.922 32.6205 63.9419 32.5225C63.9545 32.4608 63.9653 32.399 63.9762 32.3373C63.9925 32.2466 64.0087 32.1558 64.025 32.065C64.0358 31.9997 64.0467 31.9343 64.0557 31.869C64.0702 31.78 64.0828 31.6911 64.0973 31.6021C64.1063 31.535 64.1153 31.4696 64.1262 31.4024C64.1388 31.3135 64.1497 31.2264 64.1605 31.1374C64.1696 31.0703 64.1768 31.0031 64.184 30.9341C64.1949 30.8452 64.2039 30.7562 64.2129 30.6673C64.2202 30.6001 64.2256 30.5329 64.2328 30.4639C64.2418 30.3732 64.2491 30.2824 64.2545 30.1898C64.2599 30.1245 64.2653 30.0573 64.269 29.992C64.2762 29.8958 64.2798 29.8014 64.2852 29.7052C64.2888 29.6434 64.2925 29.5799 64.2961 29.5182C64.3015 29.4129 64.3033 29.3058 64.3069 29.1987C64.3069 29.146 64.3105 29.0934 64.3123 29.0408C64.3159 28.881 64.3178 28.7213 64.3178 28.5615C64.3178 17.0907 55.0593 7.79102 43.6394 7.79102H8.27921L21.3708 33.7914L21.6039 33.4338L21.6111 33.4465L22.2419 32.4553L25.3864 27.6212L25.3539 27.5577L25.4949 27.3362L22.8617 22.5656L18.7214 14.268H43.6358C51.4828 14.268 57.8678 20.6814 57.8678 28.5633C57.8678 28.7322 57.8641 28.8992 57.8587 29.0662C57.8569 29.1224 57.8533 29.1769 57.8497 29.2314C57.8443 29.3421 57.8406 29.4546 57.8316 29.5654C57.8262 29.6325 57.8208 29.6979 57.8153 29.7632C57.8063 29.8613 57.7991 29.9611 57.79 30.0591C57.7828 30.1299 57.7738 30.2007 57.7647 30.2715C57.7539 30.3641 57.7431 30.4567 57.7304 30.5493C57.7196 30.6219 57.7069 30.6945 57.6961 30.7671C57.6816 30.856 57.669 30.945 57.6545 31.0339C57.6418 31.1084 57.6256 31.1828 57.6111 31.2572C57.5949 31.3425 57.5804 31.4279 57.5623 31.5114C57.5461 31.5876 57.528 31.6639 57.5099 31.7401C57.4919 31.8218 57.4738 31.9035 57.4539 31.9852C57.4358 32.0632 57.4141 32.1395 57.3943 32.2157C57.3726 32.2938 57.3527 32.3736 57.331 32.4517C57.3093 32.5297 57.2858 32.606 57.2623 32.684C57.2388 32.7603 57.2172 32.8365 57.1937 32.9128C57.1684 32.9908 57.1412 33.0689 57.1159 33.1451C57.0906 33.2195 57.0672 33.2922 57.04 33.3666C57.0111 33.4446 56.9822 33.5227 56.9533 33.6008C56.9262 33.6716 56.9009 33.7424 56.8738 33.8132C56.8431 33.893 56.8087 33.9711 56.7762 34.0491C56.7473 34.1163 56.7202 34.1853 56.6912 34.2524C56.6569 34.3323 56.6208 34.4104 56.5846 34.4903C56.5557 34.5556 56.5268 34.6191 56.4961 34.6845C56.4581 34.7644 56.4184 34.8442 56.3786 34.9241C56.3479 34.9858 56.319 35.0475 56.2864 35.1093C56.2449 35.191 56.2015 35.269 56.1581 35.3489C56.1274 35.407 56.0967 35.4651 56.0641 35.5231C56.019 35.6048 55.972 35.6847 55.925 35.7646C55.8925 35.819 55.8617 35.8753 55.8292 35.9298C55.8165 35.9497 55.8039 35.9697 55.7912 35.9897L55.7027 36.0895L53.6244 38.7344C52.7153 39.6348 51.687 40.4153 50.5666 41.0452L45.875 49.2122C46.8075 49.1106 47.722 48.9472 48.6129 48.7257C48.6256 48.7239 48.64 48.7203 48.6527 48.7167C48.7376 48.6949 48.8226 48.6731 48.9075 48.6513C48.969 48.635 49.0304 48.6186 49.0937 48.6023C49.1768 48.5787 49.2617 48.5551 49.3449 48.5315C49.4063 48.5133 49.4678 48.4952 49.5292 48.477C49.6123 48.4516 49.6955 48.4262 49.7786 48.4008C49.8382 48.3826 49.8997 48.3627 49.9593 48.3427C50.0425 48.3155 50.1256 48.2882 50.2087 48.261C50.2684 48.241 50.3262 48.2211 50.3858 48.2011C50.469 48.1721 50.5521 48.143 50.6352 48.114C50.6912 48.094 50.7473 48.0722 50.8033 48.0523C50.8882 48.0214 50.9732 47.9887 51.0563 47.9579C51.1069 47.9379 51.1593 47.9179 51.2099 47.898C51.2985 47.8635 51.387 47.829 51.4738 47.7927C51.5099 47.7781 51.5479 47.7618 51.584 47.7455C51.9111 47.6093 52.2328 47.4641 52.5509 47.3116C52.5888 47.2935 52.6268 47.2753 52.6647 47.2572C52.7497 47.2154 52.8346 47.1737 52.9178 47.1301C52.9666 47.1065 53.0153 47.0811 53.0623 47.0575C53.1437 47.0157 53.2232 46.974 53.3027 46.9304C53.3533 46.9032 53.4039 46.8759 53.4545 46.8487C53.5322 46.807 53.6099 46.7634 53.6876 46.7198C53.74 46.6908 53.7906 46.6618 53.8431 46.6327C53.919 46.5891 53.9949 46.5456 54.0708 46.5002C54.1232 46.4693 54.1738 46.4385 54.2262 46.4076C54.3003 46.3622 54.3762 46.3168 54.4503 46.2715C54.5009 46.2406 54.5515 46.2079 54.6021 46.1771C54.6762 46.1299 54.7503 46.0827 54.8244 46.0355C54.8732 46.0028 54.922 45.9719 54.9708 45.9393C55.0449 45.8903 55.119 45.8412 55.1931 45.7904C55.2382 45.7595 55.2834 45.7269 55.3286 45.696C55.4045 45.6434 55.4804 45.5907 55.5563 45.5381C55.5925 45.5127 55.6286 45.4854 55.6647 45.4582C55.9412 45.2585 56.2141 45.0534 56.4798 44.8392C56.5159 44.8102 56.5521 44.7829 56.5882 44.7539C56.6587 44.6976 56.7274 44.6395 56.7961 44.5832C56.8412 44.5469 56.8846 44.5088 56.9298 44.4725C56.9949 44.4162 57.0599 44.36 57.125 44.3037C57.172 44.2638 57.219 44.2238 57.2641 44.1821C57.3274 44.1258 57.3906 44.0695 57.4521 44.0132C57.4991 43.9715 57.5461 43.9279 57.5931 43.8844C57.6545 43.8281 57.7141 43.7718 57.7756 43.7137C57.8226 43.6702 57.8696 43.6248 57.9165 43.5794C57.9762 43.5231 58.0358 43.465 58.0937 43.4069C58.1406 43.3616 58.1858 43.3144 58.2328 43.269C58.2906 43.2109 58.3485 43.1528 58.4063 43.0947L58.4099 43.0929Z" fill="black"/>
<path d="M77.0461 46.3009L77.7581 43.9937H78.2425L78.9545 46.3009L79.7587 43.9937H80.3389L79.2238 47.2013H78.6889L78.0166 45.003H77.9804L77.3081 47.2013H76.7732L75.6581 43.9937H76.2383L77.0425 46.3009H77.0461Z" fill="black"/>
<path d="M83.9027 43.9937V44.5037H82.1985V45.3533H83.7292V45.8344H82.1985V46.693H83.9569V47.2031H81.6599V43.9955H83.9027V43.9937Z" fill="black"/>
<path d="M86.8666 47.2013H85.4696V43.9937H86.713C86.9298 43.9937 87.116 44.0191 87.2732 44.0717C87.4304 44.1244 87.5461 44.1933 87.622 44.2823C87.7684 44.4475 87.8407 44.6344 87.8407 44.8414C87.8407 45.0919 87.7612 45.2789 87.6039 45.4005C87.5461 45.4441 87.5064 45.4695 87.4847 45.4804C87.463 45.4913 87.425 45.5094 87.3708 45.533C87.5678 45.5766 87.7268 45.6655 87.8443 45.8017C87.9618 45.9378 88.0196 46.1066 88.0196 46.3081C88.0196 46.5314 87.9437 46.7293 87.7919 46.8999C87.613 47.0978 87.3039 47.1976 86.8684 47.1976L86.8666 47.2013ZM86.0082 45.3243H86.6931C87.0835 45.3243 87.2786 45.1917 87.2786 44.9249C87.2786 44.7724 87.2317 44.6617 87.1377 44.5945C87.0437 44.5273 86.8973 44.4929 86.6985 44.4929H86.0082V45.3243ZM86.0082 46.7002H86.8539C87.0509 46.7002 87.2027 46.6694 87.3076 46.6058C87.4124 46.5441 87.4648 46.4243 87.4648 46.2501C87.4648 45.9651 87.2371 45.8235 86.7835 45.8235H86.0064V46.7002H86.0082Z" fill="black"/>
<path d="M94.0069 44.4128C94.3142 44.6924 94.4678 45.0827 94.4678 45.5801C94.4678 46.0775 94.3178 46.4732 94.0196 46.7636C93.7214 47.0541 93.2642 47.1993 92.6497 47.1993H91.5907V43.9917H92.6877C93.2605 43.9917 93.6997 44.1315 94.0087 44.411L94.0069 44.4128ZM93.9238 45.5946C93.9238 44.8612 93.5045 44.4927 92.6678 44.4927H92.1292V46.691H92.7274C93.1142 46.691 93.4106 46.5985 93.6166 46.4133C93.8226 46.2281 93.9256 45.9558 93.9256 45.5946H93.9238Z" fill="black"/>
<path d="M98.2286 43.9937V44.5037H96.5244V45.3533H98.0551V45.8344H96.5244V46.693H98.2828V47.2031H95.9858V43.9955H98.2286V43.9937Z" fill="black"/>
<path d="M100.761 44.4147C100.603 44.4147 100.475 44.4474 100.374 44.5109C100.273 44.5745 100.224 44.6725 100.224 44.8032C100.224 44.9339 100.274 45.0319 100.374 45.1009C100.475 45.1699 100.688 45.2443 101.015 45.3242C101.342 45.4041 101.59 45.5148 101.755 45.66C101.921 45.8034 102.004 46.0158 102.004 46.2954C102.004 46.5749 101.899 46.8018 101.689 46.9761C101.48 47.1504 101.203 47.2375 100.862 47.2375C100.363 47.2375 99.9184 47.065 99.5316 46.7183L99.8696 46.3099C100.193 46.5913 100.527 46.7329 100.874 46.7329C101.048 46.7329 101.185 46.6947 101.288 46.6203C101.389 46.5459 101.442 46.446 101.442 46.3226C101.442 46.1992 101.393 46.1029 101.297 46.034C101.202 45.965 101.035 45.9033 100.802 45.8452C100.567 45.7889 100.39 45.7363 100.267 45.6891C100.146 45.6419 100.038 45.5801 99.9437 45.5039C99.7557 45.3605 99.66 45.1408 99.66 44.8431C99.66 44.5454 99.7666 44.3185 99.9816 44.157C100.197 43.9954 100.462 43.9155 100.779 43.9155C100.983 43.9155 101.185 43.95 101.386 44.0172C101.586 44.0843 101.76 44.1787 101.906 44.3022L101.619 44.7106C101.525 44.6253 101.397 44.5545 101.236 44.5C101.075 44.4456 100.916 44.4165 100.759 44.4165L100.761 44.4147Z" fill="black"/>
<path d="M103.495 43.9937H104.033V47.2013H103.495V43.9937Z" fill="black"/>
<path d="M107.953 45.6399H108.492V46.7363C108.19 47.0704 107.76 47.2355 107.2 47.2355C106.728 47.2355 106.332 47.0794 106.014 46.7672C105.696 46.455 105.537 46.0611 105.537 45.5836C105.537 45.1062 105.7 44.7087 106.023 44.391C106.347 44.0733 106.739 43.9136 107.2 43.9136C107.661 43.9136 108.042 44.0479 108.345 44.3166L108.058 44.7286C107.933 44.6215 107.807 44.5471 107.682 44.5054C107.556 44.4636 107.409 44.4436 107.241 44.4436C106.918 44.4436 106.647 44.5489 106.428 44.7577C106.209 44.9664 106.099 45.2424 106.099 45.5836C106.099 45.9249 106.206 46.199 106.419 46.4041C106.632 46.6111 106.891 46.7146 107.192 46.7146C107.494 46.7146 107.749 46.6492 107.953 46.5167V45.6363V45.6399Z" fill="black"/>
<path d="M112.417 43.9937H112.956V47.2013H112.37L110.561 44.8614V47.2013H110.023V43.9937H110.561L112.415 46.3898V43.9937H112.417Z" fill="black"/>
<path d="M118.981 43.9937V44.5037H117.277V45.3533H118.808V45.8344H117.277V46.693H119.035V47.2031H116.738V43.9955H118.981V43.9937Z" fill="black"/>
<path d="M122.44 47.2009L121.654 45.9937H121.63L120.844 47.2009H120.172L121.269 45.5544L120.25 43.9951H120.917L121.629 45.0788H121.652L122.364 43.9951H123.031L122.012 45.5544L123.109 47.2009H122.436H122.44Z" fill="black"/>
<path d="M126.6 44.2731C126.823 44.46 126.935 44.7469 126.935 45.1353C126.935 45.5238 126.821 45.8088 126.595 45.9885C126.369 46.1682 126.02 46.259 125.55 46.259H124.985V47.1993H124.446V43.9917H125.543C126.027 43.9917 126.38 44.0843 126.602 44.2713L126.6 44.2731ZM126.219 45.5964C126.327 45.482 126.382 45.3132 126.382 45.0918C126.382 44.8703 126.313 44.7142 126.176 44.6216C126.038 44.529 125.823 44.4836 125.532 44.4836H124.985V45.7689H125.61C125.908 45.7689 126.112 45.7108 126.221 45.5964H126.219Z" fill="black"/>
<path d="M130.634 43.9937V44.5037H128.93V45.3533H130.461V45.8344H128.93V46.693H130.688V47.2031H128.391V43.9955H130.634V43.9937Z" fill="black"/>
<path d="M134.751 45.0356C134.751 45.5657 134.521 45.8979 134.061 46.0358L134.896 47.2013H134.211L133.448 46.123H132.739V47.2013H132.201V43.9937H133.388C133.876 43.9937 134.223 44.0772 134.435 44.2423C134.646 44.4075 134.749 44.6726 134.749 45.0356H134.751ZM134.033 45.4894C134.144 45.3951 134.198 45.2426 134.198 45.0338C134.198 44.8251 134.142 44.6798 134.028 44.6018C133.916 44.5237 133.714 44.4856 133.424 44.4856H132.739V45.6329H133.412C133.715 45.6329 133.923 45.5857 134.033 45.4913V45.4894Z" fill="black"/>
<path d="M137.511 44.4892V47.2013H136.972V44.4892H136.003V43.9937H138.479V44.4892H137.511Z" fill="black"/>
<path d="M140.852 44.4147C140.695 44.4147 140.567 44.4474 140.465 44.5109C140.364 44.5745 140.315 44.6725 140.315 44.8032C140.315 44.9339 140.366 45.0319 140.465 45.1009C140.567 45.1699 140.78 45.2443 141.107 45.3242C141.434 45.4041 141.682 45.5148 141.846 45.66C142.012 45.8034 142.095 46.0158 142.095 46.2954C142.095 46.5749 141.991 46.8018 141.781 46.9761C141.571 47.1504 141.295 47.2375 140.953 47.2375C140.455 47.2375 140.01 47.065 139.623 46.7183L139.961 46.3099C140.285 46.5913 140.619 46.7329 140.966 46.7329C141.139 46.7329 141.277 46.6947 141.38 46.6203C141.481 46.5459 141.533 46.446 141.533 46.3226C141.533 46.1992 141.485 46.1029 141.389 46.034C141.293 45.965 141.127 45.9033 140.894 45.8452C140.659 45.7889 140.482 45.7363 140.359 45.6891C140.238 45.6419 140.129 45.5801 140.035 45.5039C139.847 45.3605 139.752 45.1408 139.752 44.8431C139.752 44.5454 139.858 44.3185 140.073 44.157C140.288 43.9954 140.554 43.9155 140.87 43.9155C141.074 43.9155 141.277 43.95 141.477 44.0172C141.678 44.0843 141.852 44.1787 141.998 44.3022L141.711 44.7106C141.617 44.6253 141.488 44.5545 141.327 44.5C141.167 44.4456 141.008 44.4165 140.85 44.4165L140.852 44.4147Z" fill="black"/>
</svg>
